<?xml version="1.0"?>
<svg xmlns="http://www.w3.org/2000/svg" id="Outline" viewBox="0 0 512 512" width="512" height="512"><circle cx="272" cy="112" r="8"/><path d="M353.8,304.205l-.23-.05a494.587,494.587,0,0,0-66.967-7.6,55.837,55.837,0,0,0,12.033-16.628c.326.026.652.054.981.069.121,0,.242.008.363.008H392c32.456,0,59.389-10.615,77.885-30.7C486.97,230.751,496,205.4,496,176c0-.223-.007-.444-.009-.667H496l-.009-.012A104.114,104.114,0,0,0,392,72H216a24.027,24.027,0,0,1-24-24V32a8,8,0,0,0-16,0V48a40.063,40.063,0,0,0,32.256,39.241,103.764,103.764,0,0,0,1.325,10.864,30.683,30.683,0,0,1-16.56,2.075,17.011,17.011,0,0,1-12.591-9.043L175.541,77.33a8,8,0,1,0-15.082,5.34l5.067,14.311a8.057,8.057,0,0,0,.386.908,33.127,33.127,0,0,0,24.2,18.025,40.773,40.773,0,0,0,7.4.664,48.109,48.109,0,0,0,16.089-2.887A104.183,104.183,0,0,0,311.972,184l.034,0,.034,0H392a16.417,16.417,0,0,1,.57,32.824c-.06,0-.122,0-.182.009l-92.772,5.359a29.131,29.131,0,0,0-6.252.976A56.219,56.219,0,0,0,248,200H232a8,8,0,0,0-8,8,56.019,56.019,0,0,0,27.19,48A56.053,56.053,0,0,0,224.2,299.476c-33.958,5.939-67.621,19.465-100.5,40.43a62.764,62.764,0,0,0-8.45,6.461A88.031,88.031,0,0,0,40,304H24a8,8,0,0,0-8,8,88.117,88.117,0,0,0,51.36,80A88.117,88.117,0,0,0,16,472a8,8,0,0,0,8,8H40a88.031,88.031,0,0,0,75.249-42.367,62.764,62.764,0,0,0,8.45,6.461C169.39,473.228,216.594,488,264,488a504.744,504.744,0,0,0,89.569-8.155l.23-.05c106.189-24.5,139.769-81.415,141.147-83.826a8,8,0,0,0,0-7.938C493.568,385.62,459.988,328.71,353.8,304.205Zm79.628-48.111c-18.731-4.938-23.667-20.1-24.963-27.711a32.246,32.246,0,0,0,14.823-19.434q3.843.306,7.486.307a82.879,82.879,0,0,0,47.709-14.717C474.205,220.078,460.548,244.126,433.427,256.094ZM381.4,168H332.416a73.925,73.925,0,0,0,11.174-21.47,8,8,0,0,0-15.18-5.06,55.53,55.53,0,0,1-12.558,21.357,38.96,38.96,0,0,1-6.007,5.121A88.109,88.109,0,0,1,224.36,88H392a87.556,87.556,0,0,1,31.791,5.944C420.971,135.393,389.425,161.9,381.4,168Zm22.013,2.08c13.4-13.161,31.513-36.359,35.7-68.376a88.036,88.036,0,0,1,40.809,70.67c-7,7.5-25.685,23.337-56.391,20.529A32.539,32.539,0,0,0,403.413,170.08ZM343.246,235.7l49.72-2.872c1.951,9.512,7.144,21.275,17.935,29.747A120.7,120.7,0,0,1,392,264H354.673C350.251,260.381,339.337,249.747,343.246,235.7ZM300.44,238.17l26.3-1.519C325.312,247.23,328.62,256.605,333.4,264H300.182a12.93,12.93,0,0,1,.258-25.83ZM240.8,216H248a40.163,40.163,0,0,1,31.621,15.509,28.817,28.817,0,0,0-7.361,15.73A40.115,40.115,0,0,1,240.8,216Zm34.371,48.3a28.94,28.94,0,0,0,8.417,9.966A40.085,40.085,0,0,1,248,296h-7.2A40.094,40.094,0,0,1,275.175,264.3ZM40,464H32.441a72.131,72.131,0,0,1,63.218-63.5,61.339,61.339,0,0,0,8.618,23.957A72.03,72.03,0,0,1,40,464Zm55.659-80.5A72.131,72.131,0,0,1,32.441,320H40a72.03,72.03,0,0,1,64.277,39.543A61.339,61.339,0,0,0,95.659,383.5Zm280.068,73.726c-7.91,2.517-16.36,4.86-25.4,6.95A497.863,497.863,0,0,1,264,472c-44.31,0-88.619-13.928-131.7-41.4a45.713,45.713,0,0,1,0-77.206C175.381,325.928,219.69,312,264,312a499.085,499.085,0,0,1,86.328,7.825c9.04,2.089,17.49,4.433,25.4,6.949C371.945,334.981,360,363.183,360,392S371.945,449.02,375.727,457.226Zm77.462-39.819c-13.036,10.435-33.273,23.533-62.268,34.531C389.021,447.969,376,419.737,376,392c0-27.622,13.016-55.941,14.922-59.938,28.995,11,49.232,24.1,62.267,34.531C466.6,377.33,474.557,386.875,478.341,392,474.55,397.134,466.6,406.675,453.189,417.407Z"/><circle cx="432" cy="384" r="8"/><path d="M295.773,356.5a8,8,0,0,0-5.041-5.619l-61.713-22.4a8,8,0,0,0-10,4.182C218.569,333.641,208,357.053,208,392s10.566,58.359,11.016,59.338a8,8,0,0,0,10,4.182l61.713-22.4a8,8,0,0,0,3.164-12.931c-.083-.089-8.178-9.43-8.178-28.189,0-18.633,7.9-27.873,8.178-28.189A8,8,0,0,0,295.773,356.5ZM275.59,420.538c.141.308.283.608.425.9l-45,16.333a148.353,148.353,0,0,1-6.8-37.774H232a8,8,0,0,0,0-16h-7.786a148.379,148.379,0,0,1,6.8-37.775l45,16.334c-.142.295-.284.595-.425.9a72.284,72.284,0,0,0,0,57.076Z"/><path d="M27.794,235.124c.1.066.2.131.3.193L56,252.472V272a24.027,24.027,0,0,0,24,24c4.905,0,9.114-1.744,13.571-3.59C98.806,290.242,104.219,288,112,288s13.194,2.242,18.429,4.41C134.886,294.256,139.1,296,144,296a24.027,24.027,0,0,0,24-24V252.472l27.905-17.155c.1-.062.2-.127.3-.193,11.981-8.124,15.416-25.661,7.5-38.294C187.235,170.534,152.489,144,112,144s-75.235,26.534-91.708,52.83C12.378,209.463,15.813,227,27.794,235.124ZM152,272a8.009,8.009,0,0,1-8,8c-1.723,0-4.376-1.1-7.448-2.372C130.817,275.253,122.964,272,112,272s-18.817,3.253-24.552,5.628C84.376,278.9,81.723,280,80,280a8.009,8.009,0,0,1-8-8V256H87.977l.029,0,.034,0h47.92l.034,0,.029,0H152ZM33.851,205.324C47.983,182.764,77.629,160,112,160s64.017,22.764,78.149,45.324c3.326,5.308,1.984,13.111-2.8,16.471L157.738,240h-8.794l10.211-20.422a8,8,0,0,0-14.31-7.156L131.056,240H120V208a8,8,0,0,0-16,0v32H92.944L79.155,212.422a8,8,0,1,0-14.31,7.156L75.056,240H66.262L36.649,221.8C31.867,218.435,30.525,210.632,33.851,205.324Z"/></svg>
